<?xml version="1.0" encoding="utf-8"?>
<!-- Generator: Adobe Illustrator 28.0.0, SVG Export Plug-In . SVG Version: 6.00 Build 0)  -->
<svg version="1.1" id="Layer_1" xmlns="http://www.w3.org/2000/svg" xmlns:xlink="http://www.w3.org/1999/xlink" x="0px" y="0px"
	 viewBox="0 0 203.66 546.31" style="enable-background:new 0 0 203.66 546.31;" xml:space="preserve">
<style type="text/css">
	.st0{fill:none;stroke:#000000;stroke-width:3;stroke-miterlimit:10;}
	.st1{stroke:#000000;stroke-width:2;stroke-miterlimit:10;}
</style>
<g>
	<polyline class="st0" points="191.79,266.01 102.25,321.97 14.51,264.54 	"/>
	<path class="st0" d="M184.49,496.98c4.56,2.81,9.01,6.36,10.92,11.35c1.35,3.52,1.28,7.41,1.19,11.18
		c-0.1,4.03-0.23,8.24-2.16,11.79c-1.5,2.75-3.95,4.87-6.6,6.57c-10.41,6.7-23.51,7.41-35.92,7.46c-4.75,0.02-9.6-0.05-14.09-1.58
		c-11.08-3.78-17.56-16.09-17.35-27.73c0.13-7.46,2.63-14.96,7.46-20.68C142.12,478.53,168.6,487.2,184.49,496.98z"/>
	<path class="st0" d="M17.72,497.59c-4.56,2.81-9.01,6.36-10.92,11.35c-1.35,3.52-1.28,7.41-1.19,11.18
		c0.1,4.03,0.23,8.24,2.16,11.79c1.5,2.75,3.95,4.87,6.6,6.57c10.41,6.7,23.51,7.41,35.92,7.46c4.75,0.02,9.6-0.05,14.09-1.58
		c11.08-3.78,17.56-16.09,17.35-27.73c-0.13-7.46-2.63-14.96-7.46-20.68C60.09,479.14,33.62,487.8,17.72,497.59z"/>
	<g>
		<g>
			<path class="st1" d="M49.47,485.2c-4.52-13.82,1.44-28.63,8.78-40.51c6.8-10.99,15.96-20.66,26.7-28.25
				c6.03-4.27,12.56-7.88,19.44-10.76c0.63-0.27,0.09-1.16-0.54-0.9c-12.51,5.22-23.85,12.93-33.21,22.45
				c-9.47,9.63-17.39,21.38-21.46,34.1c-2.5,7.8-3.33,16.24-0.75,24.13C48.64,486.1,49.68,485.84,49.47,485.2L49.47,485.2z"/>
		</g>
	</g>
	<path class="st0" d="M155.69,485.83c3.41-10.87,0.47-22.8-4.35-33.12c-9.58-20.51-26.71-37.31-47.29-46.38l-1.78-164.77
		c-2.74,0.56-5.48,1.12-8.22,1.67c-55.9-6.68-88.78-63.47-85.49-113.58c0-33.4,13.16-63.48,39.46-86.86
		c23.02-16.71,46.04-43.43,75.63-33.4c6.58,3.34,16.44,6.68,23.02,10.02c46.04,30.07,52.61,86.86,46.04,136.97
		c-6.58,30.07-19.73,56.79-42.74,76.84c-16.44,10.02-36.17,6.68-53.65,8.66"/>
	<ellipse class="st0" cx="99.61" cy="182.07" rx="16.98" ry="12.13"/>
	<g>
		<g>
			<path class="st1" d="M92.34,180.56c0.62,1.05,1.58,2.04,2.54,2.78c1.13,0.88,2.41,1.02,3.81,0.93c2.43-0.16,4.99-1.19,5.88-3.64
				c0.05-0.12-0.15-0.18-0.2-0.05c-0.88,2.44-3.5,3.39-5.9,3.5c-1.35,0.06-2.56-0.14-3.62-1.02c-0.87-0.73-1.76-1.63-2.33-2.61
				C92.45,180.34,92.27,180.44,92.34,180.56L92.34,180.56z"/>
		</g>
	</g>
	<g>
		<g>
			<path class="st1" d="M122.84,161.45c-1.14,2.41-2.23,4.85-3.26,7.31c-1.01,2.41-1.97,4.87-2.5,7.45
				c-0.95,4.63-0.28,9.28,2.9,12.89c1.76,2,3.92,3.63,5.49,5.8c0.38,0.52,1.27,0.02,0.88-0.52c-1.63-2.24-3.83-3.93-5.65-6.01
				c-2.01-2.28-2.99-5.05-3.03-8.07c-0.03-3.14,0.88-6.18,2.01-9.07c1.21-3.14,2.6-6.22,4.04-9.26
				C124,161.38,123.12,160.85,122.84,161.45L122.84,161.45z"/>
		</g>
	</g>
	<g>
		<g>
			<path class="st1" d="M76.12,159.79c1.44,3.04,2.83,6.12,4.04,9.26c1.12,2.9,2.04,5.94,2.01,9.07c-0.03,3.03-1.02,5.8-3.03,8.07
				c-1.82,2.07-4.02,3.76-5.65,6.01c-0.39,0.53,0.5,1.04,0.88,0.52c1.39-1.91,3.22-3.41,4.85-5.1c1.54-1.61,2.78-3.41,3.4-5.56
				c1.43-4.88-0.1-9.92-1.95-14.45c-1.14-2.82-2.38-5.59-3.68-8.33C76.72,158.68,75.84,159.2,76.12,159.79L76.12,159.79z"/>
		</g>
	</g>
	<path class="st0" d="M75.71,122.86c-0.87-2.83,0.08-5.8,0.53-8.69c0.43-2.77,0.39-5.59,0.35-8.41c-0.12-8.09-0.22-16.2-0.34-24.29"
		/>
	<path class="st0" d="M135.54,123.88c-0.93-3.05,0.1-6.18,0.59-9.24c0.47-2.93,0.44-5.95,0.41-8.95c-0.1-8.64-0.18-17.28-0.28-25.92
		"/>
	<path class="st0" d="M94.88,241.73"/>
</g>
</svg>
