<?xml version="1.0" encoding="utf-8"?>
<!-- Generator: Adobe Illustrator 28.0.0, SVG Export Plug-In . SVG Version: 6.00 Build 0)  -->
<svg version="1.1" id="Layer_1" xmlns="http://www.w3.org/2000/svg" xmlns:xlink="http://www.w3.org/1999/xlink" x="0px" y="0px"
	 viewBox="0 0 203.66 257.89" style="enable-background:new 0 0 203.66 257.89;" xml:space="preserve">
<style type="text/css">
	.st0{fill:#FFFFFF;}
	.st1{fill:none;stroke:#000000;stroke-width:3;stroke-miterlimit:10;}
</style>
<g>
	<g>
		<path class="st0" d="M2.76,100.4c1.93,0,1.93-3,0-3C0.83,97.4,0.83,100.4,2.76,100.4L2.76,100.4z"/>
	</g>
</g>
<path class="st1" d="M100.99,252.81c-2.87,0.57-5.73,1.15-8.6,1.72C33.94,247.65-0.44,189.2,3,137.63
	c0-34.38,13.75-65.33,41.26-89.4c24.07-17.19,48.14-44.7,79.08-34.38c6.88,3.44,17.19,6.88,24.07,10.32
	c48.14,30.95,55.01,89.4,48.14,140.97c-6.88,30.95-20.63,58.45-44.7,79.08c-17.19,10.32-37.82,6.88-56.1,8.91"/>
<path class="st1" d="M71.91,138.77c-1.11-3.58,0.1-7.35,0.67-11.01c0.54-3.5,0.5-7.09,0.45-10.65c-0.14-10.26-0.29-20.51-0.43-30.77
	"/>
<g>
	<g>
		<path d="M67.71,185.02c0.28,9.84,5.73,19.7,14.74,24.05c6.41,3.09,13.24,3.45,20.12,2.08c5.45-1.09,11.87-2.74,15.73-7.03
			c5.17-5.74,6.96-13.94,7.39-21.44c0.09-1.62-1.45-3-3-3c-1.7,0-2.91,1.38-3,3c-0.33,5.72-1.58,11.67-4.92,16.33
			c-1.06,1.48-2.35,2.58-4.26,3.47c-0.19,0.09-0.38,0.17-0.56,0.25c0.62-0.27-0.27,0.11-0.32,0.13c-0.6,0.24-1.21,0.46-1.83,0.67
			c-1.47,0.5-2.97,0.94-4.48,1.31c-3.1,0.76-5.27,1.2-8.28,1.18c-2.82-0.03-5.47-0.52-8.22-1.55c-5.14-1.92-8.81-5.78-11.01-10.57
			c-0.01-0.02-0.39-0.92-0.17-0.37c-0.14-0.35-0.28-0.71-0.41-1.07c-0.18-0.51-0.35-1.02-0.5-1.54c-0.29-0.98-0.53-1.98-0.72-2.99
			c-0.05-0.27-0.25-1.78-0.13-0.71c-0.03-0.31-0.07-0.61-0.1-0.92c-0.04-0.42-0.07-0.85-0.08-1.27
			C73.6,181.17,67.6,181.15,67.71,185.02L67.71,185.02z"/>
	</g>
</g>
<path class="st1" d="M116.97,142.23c-1.17-3.87,0.13-7.83,0.75-11.71c0.59-3.71,0.55-7.54,0.51-11.34
	c-0.12-10.94-0.24-21.89-0.35-32.83"/>
<g>
	<g>
		<path d="M69.06,187.96c9.13,0.7,17.9-3.12,26.81-4.44c9.11-1.35,18.38-1.22,27.56-1.14c-0.75-0.75-1.5-1.5-2.25-2.25
			c-0.04,0.7-0.29,1.27-0.77,1.78c-1.97,2.12,1.2,5.31,3.18,3.18c1.31-1.4,1.99-3.05,2.09-4.96c0.06-1.22-1.08-2.24-2.25-2.25
			c-9.29-0.08-18.59-0.11-27.8,1.17c-4.5,0.62-8.88,1.71-13.28,2.8c-4.37,1.08-8.76,1.96-13.29,1.61c-1.21-0.09-2.25,1.1-2.25,2.25
			C66.81,187.01,67.84,187.87,69.06,187.96L69.06,187.96z"/>
	</g>
</g>
<g>
	<g>
		<path d="M22.36,78.2c-1.72-7.18-0.43-14.84,3.49-21.09c0.52-0.82-0.78-1.57-1.3-0.76c-4.14,6.59-5.45,14.68-3.64,22.24
			C21.14,79.54,22.59,79.14,22.36,78.2L22.36,78.2z"/>
	</g>
</g>
<g>
	<g>
		<path d="M29.91,73.59c-1.1-6.45-0.5-13.07,1.67-19.23c0.32-0.91-1.13-1.3-1.45-0.4c-2.27,6.43-2.82,13.32-1.67,20.03
			C28.62,74.94,30.07,74.54,29.91,73.59L29.91,73.59z"/>
	</g>
</g>
<g>
	<g>
		<path d="M38.43,60c-1.07-7.71,1.25-15.73,6.24-21.71c0.61-0.74-0.44-1.8-1.06-1.06c-5.37,6.43-7.77,14.87-6.62,23.17
			C37.12,61.35,38.56,60.94,38.43,60L38.43,60z"/>
	</g>
</g>
<g>
	<g>
		<path d="M49.5,55.33c-1.16-7.44,0.06-15.13,3.45-21.85c0.43-0.86-0.86-1.62-1.3-0.76c-3.58,7.11-4.83,15.14-3.6,23.01
			C48.2,56.68,49.64,56.28,49.5,55.33L49.5,55.33z"/>
	</g>
</g>
<g>
	<g>
		<path d="M57.47,49.8c-1.7-6.19,0.29-13.05,5.03-17.38c0.71-0.65-0.35-1.71-1.06-1.06c-5.12,4.69-7.25,12.15-5.41,18.84
			C56.28,51.13,57.72,50.74,57.47,49.8L57.47,49.8z"/>
	</g>
</g>
<g>
	<g>
		<path d="M68.81,36.54c-0.81-7.28,0.97-14.62,5.03-20.71c0.54-0.81-0.76-1.56-1.3-0.76c-4.19,6.29-6.06,13.96-5.23,21.47
			C67.42,37.49,68.92,37.5,68.81,36.54L68.81,36.54z"/>
	</g>
</g>
<g>
	<g>
		<path d="M57.65,40.58c-0.3-4.23,0.97-8.4,3.54-11.77c0.25-0.32,0.05-0.84-0.27-1.03c-0.38-0.23-0.78-0.05-1.03,0.27
			c-2.71,3.55-4.05,8.07-3.74,12.52C56.21,41.53,57.72,41.54,57.65,40.58L57.65,40.58z"/>
	</g>
</g>
<g>
	<g>
		<path d="M77.11,31.52c-1.45-4.4-0.39-9.42,2.76-12.82c0.66-0.71-0.4-1.77-1.06-1.06c-3.51,3.78-4.77,9.37-3.15,14.28
			C75.97,32.83,77.42,32.44,77.11,31.52L77.11,31.52z"/>
	</g>
</g>
<g>
	<g>
		<path d="M83.68,25.58c-1.3-6.28,3.47-11.88,7.37-16.21c0.64-0.72-0.41-1.78-1.06-1.06c-4.31,4.78-9.18,10.77-7.75,17.67
			C82.43,26.92,83.87,26.52,83.68,25.58L83.68,25.58z"/>
	</g>
</g>
<g>
	<g>
		<path d="M92.94,23.69c0.25-5.12,2.39-10.03,5.96-13.71c0.67-0.69-0.39-1.76-1.06-1.06c-3.85,3.97-6.12,9.25-6.4,14.77
			C91.4,24.66,92.9,24.66,92.94,23.69L92.94,23.69z"/>
	</g>
</g>
<g>
	<g>
		<path d="M104.66,21.53c-1.68-6.11,3.78-10.87,7.95-14.32c0.74-0.62-0.32-1.67-1.06-1.06c-4.64,3.84-10.18,9.08-8.34,15.78
			C103.47,22.86,104.91,22.46,104.66,21.53L104.66,21.53z"/>
	</g>
</g>
<g>
	<g>
		<path d="M113.15,18.46c1.02-5.54,5.99-10.02,11.64-10.34c0.96-0.05,0.97-1.55,0-1.5c-6.28,0.35-11.94,5.23-13.09,11.44
			C111.53,19,112.97,19.4,113.15,18.46L113.15,18.46z"/>
	</g>
</g>
<g>
	<g>
		<path d="M123.83,21.79c1.43-5.89,7.06-10.34,13.13-10.34c0.97,0,0.97-1.5,0-1.5c-6.72,0-12.99,4.91-14.58,11.44
			C122.16,22.33,123.6,22.73,123.83,21.79L123.83,21.79z"/>
	</g>
</g>
<g>
	<g>
		<path d="M137.23,25.34c1.71-4.27,5.97-7.4,10.55-7.78c0.96-0.08,0.96-1.58,0-1.5c-5.31,0.44-10.02,3.94-11.99,8.88
			c-0.15,0.38,0.17,0.82,0.52,0.92C136.73,25.98,137.08,25.71,137.23,25.34L137.23,25.34z"/>
	</g>
</g>
<g>
	<g>
		<path d="M147.1,29.51c1.98-2.85,4.95-4.95,8.29-5.88c0.93-0.26,0.53-1.71-0.4-1.45c-3.73,1.05-6.98,3.4-9.18,6.57
			C145.26,29.54,146.56,30.29,147.1,29.51L147.1,29.51z"/>
	</g>
</g>
<g>
	<g>
		<path d="M151.62,34.6c3.56-2.67,7.41-4.93,11.47-6.76c0.88-0.4,0.12-1.69-0.76-1.3c-4.06,1.83-7.9,4.1-11.47,6.76
			C150.1,33.87,150.85,35.17,151.62,34.6L151.62,34.6z"/>
	</g>
</g>
<g>
	<g>
		<path d="M158.12,41.53c4.22-3.55,9.39-5.81,14.85-6.56c0.95-0.13,0.55-1.58-0.4-1.45c-5.72,0.79-11.1,3.23-15.51,6.95
			C156.32,41.1,157.39,42.15,158.12,41.53L158.12,41.53z"/>
	</g>
</g>
<g>
	<g>
		<path d="M165.58,46.1c4.09-1.35,8.34-2.05,12.64-2.07c0.97,0,0.97-1.5,0-1.5c-4.43,0.02-8.84,0.73-13.04,2.12
			C164.27,44.95,164.66,46.4,165.58,46.1L165.58,46.1z"/>
	</g>
</g>
<g>
	<g>
		<path d="M171.3,53.66c3.75-2.16,8.09-3.01,12.38-2.47c0.96,0.12,0.95-1.38,0-1.5c-4.53-0.57-9.18,0.39-13.13,2.67
			C169.7,52.85,170.46,54.15,171.3,53.66L171.3,53.66z"/>
	</g>
</g>
<g>
	<g>
		<path d="M177.06,61.58c3.88-0.94,7.92-0.92,11.79,0.05c0.94,0.24,1.34-1.21,0.4-1.45c-4.13-1.04-8.45-1.05-12.58-0.05
			C175.72,60.36,176.12,61.8,177.06,61.58L177.06,61.58z"/>
	</g>
</g>
<g>
	<g>
		<path d="M35.69,65.17c-1.41-3.24-3.1-6.35-5.07-9.3c-0.53-0.8-1.83-0.05-1.3,0.76c1.96,2.94,3.66,6.05,5.07,9.3
			c0.16,0.37,0.71,0.46,1.03,0.27C35.81,65.97,35.85,65.54,35.69,65.17L35.69,65.17z"/>
	</g>
</g>
<g>
	<g>
		<path d="M27.39,72.41c-5.42-0.34-10.59-2.71-14.4-6.57c-0.68-0.69-1.74,0.37-1.06,1.06c4.1,4.15,9.65,6.65,15.46,7.01
			C28.36,73.97,28.36,72.47,27.39,72.41L27.39,72.41z"/>
	</g>
</g>
<g>
	<g>
		<path d="M43.09,57.71c-4.61-1.33-8.74-4.19-11.58-8.07c-0.56-0.77-1.87-0.02-1.3,0.76c3.08,4.21,7.46,7.31,12.48,8.76
			C43.62,59.43,44.01,57.98,43.09,57.71L43.09,57.71z"/>
	</g>
</g>
<g>
	<g>
		<path d="M45.59,56.82c0.75-6.85,0.4-13.77-1.01-20.52c-0.2-0.94-1.64-0.54-1.45,0.4c1.38,6.62,1.69,13.4,0.95,20.12
			C43.98,57.78,45.48,57.77,45.59,56.82L45.59,56.82z"/>
	</g>
</g>
<g>
	<g>
		<path d="M54.07,47.55c-4.92-2.78-9.84-5.56-14.75-8.34c-0.84-0.48-1.6,0.82-0.76,1.3c4.92,2.78,9.84,5.56,14.75,8.34
			C54.15,49.32,54.91,48.03,54.07,47.55L54.07,47.55z"/>
	</g>
</g>
<g>
	<g>
		<path d="M62.64,41.29c0-5.41,0-10.82,0-16.23c0-0.97-1.5-0.97-1.5,0c0,5.41,0,10.82,0,16.23C61.14,42.25,62.64,42.25,62.64,41.29
			L62.64,41.29z"/>
	</g>
</g>
<g>
	<g>
		<path d="M73.57,29.42c-2.77-2-5.1-4.59-6.81-7.54c-0.48-0.83-1.78-0.08-1.3,0.76c1.85,3.19,4.36,5.93,7.35,8.08
			c0.33,0.24,0.84,0.06,1.03-0.27C74.06,30.07,73.9,29.66,73.57,29.42L73.57,29.42z"/>
	</g>
</g>
<g>
	<g>
		<path d="M82.66,27.59c-0.57-4.2-0.67-8.46-0.34-12.68c0.07-0.96-1.43-0.96-1.5,0c-0.34,4.37-0.19,8.74,0.4,13.08
			C81.34,28.94,82.78,28.54,82.66,27.59L82.66,27.59z"/>
	</g>
</g>
<g>
	<g>
		<path d="M91.72,25.05c0-5.86,0-11.72,0-17.58c0-0.97-1.5-0.97-1.5,0c0,5.86,0,11.72,0,17.58C90.22,26.02,91.72,26.02,91.72,25.05
			L91.72,25.05z"/>
	</g>
</g>
<g>
	<g>
		<path d="M101.54,19.88c-3.39-4.27-6.79-8.55-10.18-12.82c-0.6-0.76-1.66,0.31-1.06,1.06c3.39,4.27,6.79,8.55,10.18,12.82
			C101.08,21.7,102.13,20.63,101.54,19.88L101.54,19.88z"/>
	</g>
</g>
<g>
	<g>
		<path d="M108.85,18.39c1.48-6.04,4.4-11.66,8.51-16.33c0.64-0.72-0.42-1.79-1.06-1.06c-4.28,4.87-7.35,10.7-8.89,17
			C107.18,18.92,108.62,19.32,108.85,18.39L108.85,18.39z"/>
	</g>
</g>
<g>
	<g>
		<path d="M107.34,20.32c-0.25-5.79-1.19-11.53-2.8-17.1c-0.27-0.93-1.72-0.53-1.45,0.4c1.58,5.44,2.5,11.04,2.75,16.7
			C105.88,21.28,107.38,21.28,107.34,20.32L107.34,20.32z"/>
	</g>
</g>
<g>
	<g>
		<path d="M118.83,19.64c0.09-5.77-0.66-11.53-2.2-17.08c-0.26-0.93-1.71-0.53-1.45,0.4c1.51,5.44,2.23,11.04,2.14,16.69
			C117.32,20.61,118.82,20.61,118.83,19.64L118.83,19.64z"/>
	</g>
</g>
<g>
	<g>
		<path d="M120.76,18.97c0.04-3.37,1.45-6.62,3.86-8.96c0.69-0.67-0.37-1.73-1.06-1.06c-2.69,2.62-4.25,6.27-4.3,10.02
			C119.25,19.93,120.75,19.93,120.76,18.97L120.76,18.97z"/>
	</g>
</g>
<g>
	<g>
		<path d="M133.66,22.35c0-2.71,0-5.41,0-8.12c0-0.97-1.5-0.97-1.5,0c0,2.71,0,5.41,0,8.12C132.16,23.31,133.66,23.31,133.66,22.35
			L133.66,22.35z"/>
	</g>
</g>
<g>
	<g>
		<path d="M144.34,27.26c0.6-3.05,2.26-5.78,4.69-7.72c0.32-0.25,0.26-0.8,0-1.06c-0.31-0.31-0.74-0.25-1.06,0
			c-2.61,2.08-4.43,5.11-5.07,8.38c-0.08,0.4,0.11,0.81,0.52,0.92C143.79,27.89,144.26,27.66,144.34,27.26L144.34,27.26z"/>
	</g>
</g>
<g>
	<g>
		<path d="M150.98,30.95c3.17-3.37,6.34-6.74,9.51-10.11c0.66-0.7-0.4-1.77-1.06-1.06c-3.17,3.37-6.34,6.74-9.51,10.11
			C149.26,30.6,150.32,31.66,150.98,30.95L150.98,30.95z"/>
	</g>
</g>
<g>
	<g>
		<path d="M158.68,37.23c0-4.73,0-9.47,0-14.2c0-0.97-1.5-0.97-1.5,0c0,4.73,0,9.47,0,14.2C157.18,38.19,158.68,38.19,158.68,37.23
			L158.68,37.23z"/>
	</g>
</g>
<g>
	<g>
		<path d="M161.87,42.62c0.51-4.26,2.8-8.18,6.15-10.83c0.76-0.6-0.31-1.65-1.06-1.06c-3.68,2.91-6.03,7.24-6.59,11.89
			c-0.05,0.41,0.38,0.75,0.75,0.75C161.56,43.37,161.82,43.02,161.87,42.62L161.87,42.62z"/>
	</g>
</g>
<g>
	<g>
		<path d="M164.02,42.79c3.83-0.28,7.66-0.55,11.49-0.83c0.96-0.07,0.96-1.57,0-1.5c-3.83,0.28-7.66,0.55-11.49,0.83
			C163.07,41.36,163.06,42.86,164.02,42.79L164.02,42.79z"/>
	</g>
</g>
<g>
	<g>
		<path d="M170.48,51.51c1.64-4.84,3.78-9.49,6.37-13.9c0.49-0.83-0.8-1.59-1.3-0.76c-2.66,4.51-4.84,9.29-6.52,14.26
			C168.73,52.03,170.17,52.42,170.48,51.51L170.48,51.51z"/>
	</g>
</g>
<g>
	<g>
		<path d="M173.55,60.9c-0.32-3.69,0.79-7.44,3.14-10.32c0.61-0.74-0.45-1.81-1.06-1.06c-2.6,3.18-3.93,7.28-3.58,11.38
			C172.13,61.85,173.63,61.86,173.55,60.9L173.55,60.9z"/>
	</g>
</g>
<g>
	<g>
		<path d="M176.19,56.24c3.16,0,6.31,0,9.47,0c0.97,0,0.97-1.5,0-1.5c-3.16,0-6.31,0-9.47,0C175.23,54.74,175.22,56.24,176.19,56.24
			L176.19,56.24z"/>
	</g>
</g>
<g>
	<g>
		<path d="M180.32,65.63c0-3.38,0-6.76,0-10.14c0-0.97-1.5-0.97-1.5,0c0,3.38,0,6.76,0,10.14C178.82,66.6,180.32,66.6,180.32,65.63
			L180.32,65.63z"/>
	</g>
</g>
<g>
	<g>
		<path d="M26.66,76.09c-3.27-5.49-6.92-10.74-10.88-15.74c-0.6-0.76-1.65,0.31-1.06,1.06c3.89,4.9,7.44,10.07,10.65,15.44
			C25.86,77.68,27.16,76.93,26.66,76.09L26.66,76.09z"/>
	</g>
</g>
<g>
	<g>
		<path d="M36.3,63.15c-1.65-2.89-3.31-5.78-4.96-8.66c-0.48-0.84-1.78-0.08-1.3,0.76c1.65,2.89,3.31,5.78,4.96,8.66
			C35.48,64.74,36.78,63.99,36.3,63.15L36.3,63.15z"/>
	</g>
</g>
<g>
	<g>
		<path d="M6.43,140.1c0.97,0,0.97-1.5,0-1.5C5.47,138.6,5.47,140.1,6.43,140.1L6.43,140.1z"/>
	</g>
</g>
<g>
	<g>
		<path d="M13.2,146.19c0.97,0,0.97-1.5,0-1.5C12.23,144.69,12.23,146.19,13.2,146.19L13.2,146.19z"/>
	</g>
</g>
<g>
	<g>
		<path d="M5.76,146.19c0.97,0,0.97-1.5,0-1.5C4.79,144.69,4.79,146.19,5.76,146.19L5.76,146.19z"/>
	</g>
</g>
<g>
	<g>
		<path d="M8.46,153.63c0.97,0,0.97-1.5,0-1.5C7.5,152.13,7.5,153.63,8.46,153.63L8.46,153.63z"/>
	</g>
</g>
<g>
	<g>
		<path d="M15.23,153.63c0.97,0,0.97-1.5,0-1.5C14.26,152.13,14.26,153.63,15.23,153.63L15.23,153.63z"/>
	</g>
</g>
<g>
	<g>
		<path d="M13.87,157.01c0.97,0,0.97-1.5,0-1.5C12.91,155.51,12.91,157.01,13.87,157.01L13.87,157.01z"/>
	</g>
</g>
<g>
	<g>
		<path d="M11.17,170.54c0.97,0,0.97-1.5,0-1.5C10.2,169.04,10.2,170.54,11.17,170.54L11.17,170.54z"/>
	</g>
</g>
<g>
	<g>
		<path d="M19.28,175.27c0.97,0,0.97-1.5,0-1.5C18.32,173.77,18.32,175.27,19.28,175.27L19.28,175.27z"/>
	</g>
</g>
<g>
	<g>
		<path d="M22.67,158.36c0.97,0,0.97-1.5,0-1.5C21.7,156.86,21.7,158.36,22.67,158.36L22.67,158.36z"/>
	</g>
</g>
<g>
	<g>
		<path d="M19.28,165.8c0.97,0,0.97-1.5,0-1.5C18.32,164.3,18.32,165.8,19.28,165.8L19.28,165.8z"/>
	</g>
</g>
<g>
	<g>
		<path d="M17.93,188.12c0.97,0,0.97-1.5,0-1.5C16.97,186.62,16.96,188.12,17.93,188.12L17.93,188.12z"/>
	</g>
</g>
<g>
	<g>
		<path d="M15.9,182.03c0.97,0,0.97-1.5,0-1.5C14.94,180.53,14.94,182.03,15.9,182.03L15.9,182.03z"/>
	</g>
</g>
<g>
	<g>
		<path d="M24.02,187.44c0.97,0,0.97-1.5,0-1.5C23.05,185.94,23.05,187.44,24.02,187.44L24.02,187.44z"/>
	</g>
</g>
<g>
	<g>
		<path d="M25.37,180.01c0.97,0,0.97-1.5,0-1.5C24.41,178.51,24.4,180.01,25.37,180.01L25.37,180.01z"/>
	</g>
</g>
<g>
	<g>
		<path d="M28.75,184.74c0.97,0,0.97-1.5,0-1.5C27.79,183.24,27.79,184.74,28.75,184.74L28.75,184.74z"/>
	</g>
</g>
<g>
	<g>
		<path d="M29.43,193.53c0.97,0,0.97-1.5,0-1.5C28.46,192.03,28.46,193.53,29.43,193.53L29.43,193.53z"/>
	</g>
</g>
<g>
	<g>
		<path d="M19.28,194.88c0.97,0,0.97-1.5,0-1.5C18.32,193.38,18.32,194.88,19.28,194.88L19.28,194.88z"/>
	</g>
</g>
<g>
	<g>
		<path d="M22.67,200.97c0.97,0,0.97-1.5,0-1.5C21.7,199.47,21.7,200.97,22.67,200.97L22.67,200.97z"/>
	</g>
</g>
<g>
	<g>
		<path d="M30.78,207.73c0.97,0,0.97-1.5,0-1.5C29.82,206.23,29.81,207.73,30.78,207.73L30.78,207.73z"/>
	</g>
</g>
<g>
	<g>
		<path d="M32.81,202.32c0.97,0,0.97-1.5,0-1.5C31.85,200.82,31.84,202.32,32.81,202.32L32.81,202.32z"/>
	</g>
</g>
<g>
	<g>
		<path d="M36.87,200.97c0.97,0,0.97-1.5,0-1.5C35.9,199.47,35.9,200.97,36.87,200.97L36.87,200.97z"/>
	</g>
</g>
<g>
	<g>
		<path d="M36.19,194.88c0.97,0,0.97-1.5,0-1.5C35.23,193.38,35.23,194.88,36.19,194.88L36.19,194.88z"/>
	</g>
</g>
<g>
	<g>
		<path d="M34.84,178.65c0.97,0,0.97-1.5,0-1.5C33.87,177.15,33.87,178.65,34.84,178.65L34.84,178.65z"/>
	</g>
</g>
<g>
	<g>
		<path d="M26.05,165.13c0.97,0,0.97-1.5,0-1.5C25.08,163.63,25.08,165.13,26.05,165.13L26.05,165.13z"/>
	</g>
</g>
<g>
	<g>
		<path d="M27.4,173.24c0.97,0,0.97-1.5,0-1.5C26.43,171.74,26.43,173.24,27.4,173.24L27.4,173.24z"/>
	</g>
</g>
<g>
	<g>
		<path d="M34.16,186.77c0.97,0,0.97-1.5,0-1.5C33.2,185.27,33.2,186.77,34.16,186.77L34.16,186.77z"/>
	</g>
</g>
<g>
	<g>
		<path d="M39.57,191.5c0.97,0,0.97-1.5,0-1.5C38.61,190,38.61,191.5,39.57,191.5L39.57,191.5z"/>
	</g>
</g>
<g>
	<g>
		<path d="M44.98,196.24c0.97,0,0.97-1.5,0-1.5C44.02,194.74,44.02,196.24,44.98,196.24L44.98,196.24z"/>
	</g>
</g>
<g>
	<g>
		<path d="M55.81,196.24c0.97,0,0.97-1.5,0-1.5C54.84,194.74,54.84,196.24,55.81,196.24L55.81,196.24z"/>
	</g>
</g>
<g>
	<g>
		<path d="M62.57,194.88c0.97,0,0.97-1.5,0-1.5C61.6,193.38,61.6,194.88,62.57,194.88L62.57,194.88z"/>
	</g>
</g>
<g>
	<g>
		<path d="M65.95,180.68c0.97,0,0.97-1.5,0-1.5C64.99,179.18,64.98,180.68,65.95,180.68L65.95,180.68z"/>
	</g>
</g>
<g>
	<g>
		<path d="M59.86,180.68c0.97,0,0.97-1.5,0-1.5C58.9,179.18,58.9,180.68,59.86,180.68L59.86,180.68z"/>
	</g>
</g>
<g>
	<g>
		<path d="M58.51,186.77c0.97,0,0.97-1.5,0-1.5C57.55,185.27,57.54,186.77,58.51,186.77L58.51,186.77z"/>
	</g>
</g>
<g>
	<g>
		<path d="M52.42,180.01c0.97,0,0.97-1.5,0-1.5C51.46,178.51,51.46,180.01,52.42,180.01L52.42,180.01z"/>
	</g>
</g>
<g>
	<g>
		<path d="M51.07,184.74c0.97,0,0.97-1.5,0-1.5C50.11,183.24,50.1,184.74,51.07,184.74L51.07,184.74z"/>
	</g>
</g>
<g>
	<g>
		<path d="M44.98,180.68c0.97,0,0.97-1.5,0-1.5C44.02,179.18,44.02,180.68,44.98,180.68L44.98,180.68z"/>
	</g>
</g>
<g>
	<g>
		<path d="M74.07,179.33c0.97,0,0.97-1.5,0-1.5C73.1,177.83,73.1,179.33,74.07,179.33L74.07,179.33z"/>
	</g>
</g>
<g>
	<g>
		<path d="M82.86,175.27c0.97,0,0.97-1.5,0-1.5C81.89,173.77,81.89,175.27,82.86,175.27L82.86,175.27z"/>
	</g>
</g>
<g>
	<g>
		<path d="M80.15,182.03c0.97,0,0.97-1.5,0-1.5C79.19,180.53,79.19,182.03,80.15,182.03L80.15,182.03z"/>
	</g>
</g>
<g>
	<g>
		<path d="M89.62,179.33c0.97,0,0.97-1.5,0-1.5C88.66,177.83,88.66,179.33,89.62,179.33L89.62,179.33z"/>
	</g>
</g>
<g>
	<g>
		<path d="M88.27,175.27c0.97,0,0.97-1.5,0-1.5C87.3,173.77,87.3,175.27,88.27,175.27L88.27,175.27z"/>
	</g>
</g>
<g>
	<g>
		<path d="M95.03,178.65c0.97,0,0.97-1.5,0-1.5C94.07,177.15,94.07,178.65,95.03,178.65L95.03,178.65z"/>
	</g>
</g>
<g>
	<g>
		<path d="M94.36,172.57c0.97,0,0.97-1.5,0-1.5C93.39,171.07,93.39,172.57,94.36,172.57L94.36,172.57z"/>
	</g>
</g>
<g>
	<g>
		<path d="M99.77,179.33c0.97,0,0.97-1.5,0-1.5C98.8,177.83,98.8,179.33,99.77,179.33L99.77,179.33z"/>
	</g>
</g>
<g>
	<g>
		<path d="M106.53,172.57c0.97,0,0.97-1.5,0-1.5C105.56,171.07,105.56,172.57,106.53,172.57L106.53,172.57z"/>
	</g>
</g>
<g>
	<g>
		<path d="M107.21,178.65c0.97,0,0.97-1.5,0-1.5C106.24,177.15,106.24,178.65,107.21,178.65L107.21,178.65z"/>
	</g>
</g>
<g>
	<g>
		<path d="M100.44,173.24c0.97,0,0.97-1.5,0-1.5C99.48,171.74,99.48,173.24,100.44,173.24L100.44,173.24z"/>
	</g>
</g>
<g>
	<g>
		<path d="M112.62,173.92c0.97,0,0.97-1.5,0-1.5C111.65,172.42,111.65,173.92,112.62,173.92L112.62,173.92z"/>
	</g>
</g>
<g>
	<g>
		<path d="M111.94,177.98c0.97,0,0.97-1.5,0-1.5C110.98,176.48,110.97,177.98,111.94,177.98L111.94,177.98z"/>
	</g>
</g>
<g>
	<g>
		<path d="M118.03,174.59c0.97,0,0.97-1.5,0-1.5C117.06,173.09,117.06,174.59,118.03,174.59L118.03,174.59z"/>
	</g>
</g>
<g>
	<g>
		<path d="M118.7,176.62c0.97,0,0.97-1.5,0-1.5C117.74,175.12,117.74,176.62,118.7,176.62L118.7,176.62z"/>
	</g>
</g>
<g>
	<g>
		<path d="M122.09,174.59c0.97,0,0.97-1.5,0-1.5C121.12,173.09,121.12,174.59,122.09,174.59L122.09,174.59z"/>
	</g>
</g>
<g>
	<g>
		<path d="M122.09,180.68c0.97,0,0.97-1.5,0-1.5C121.12,179.18,121.12,180.68,122.09,180.68L122.09,180.68z"/>
	</g>
</g>
<g>
	<g>
		<path d="M122.09,177.98c0.97,0,0.97-1.5,0-1.5C121.12,176.48,121.12,177.98,122.09,177.98L122.09,177.98z"/>
	</g>
</g>
<g>
	<g>
		<path d="M126.14,182.03c0.97,0,0.97-1.5,0-1.5C125.18,180.53,125.18,182.03,126.14,182.03L126.14,182.03z"/>
	</g>
</g>
<g>
	<g>
		<path d="M128.17,175.95c0.97,0,0.97-1.5,0-1.5C127.21,174.45,127.21,175.95,128.17,175.95L128.17,175.95z"/>
	</g>
</g>
<g>
	<g>
		<path d="M134.01,182.03c0.97,0,0.97-1.5,0-1.5C133.04,180.53,133.04,182.03,134.01,182.03L134.01,182.03z"/>
	</g>
</g>
<g>
	<g>
		<path d="M129.93,178.47c0.97,0,0.97-1.5,0-1.5C128.97,176.97,128.97,178.47,129.93,178.47L129.93,178.47z"/>
	</g>
</g>
<g>
	<g>
		<path d="M134.52,176.69c0.97,0,0.97-1.5,0-1.5C133.55,175.19,133.55,176.69,134.52,176.69L134.52,176.69z"/>
	</g>
</g>
<g>
	<g>
		<path d="M137.83,188.15c0.97,0,0.97-1.5,0-1.5C136.86,186.65,136.86,188.15,137.83,188.15L137.83,188.15z"/>
	</g>
</g>
<g>
	<g>
		<path d="M140.12,178.72c0.97,0,0.97-1.5,0-1.5C139.15,177.22,139.15,178.72,140.12,178.72L140.12,178.72z"/>
	</g>
</g>
<g>
	<g>
		<path d="M146.74,186.62c0.97,0,0.97-1.5,0-1.5C145.77,185.12,145.77,186.62,146.74,186.62L146.74,186.62z"/>
	</g>
</g>
<g>
	<g>
		<path d="M148.01,176.43c0.97,0,0.97-1.5,0-1.5C147.05,174.93,147.04,176.43,148.01,176.43L148.01,176.43z"/>
	</g>
</g>
<g>
	<g>
		<path d="M147.25,181.53c0.97,0,0.97-1.5,0-1.5C146.28,180.03,146.28,181.53,147.25,181.53L147.25,181.53z"/>
	</g>
</g>
<g>
	<g>
		<path d="M141.64,183.31c0.97,0,0.97-1.5,0-1.5C140.68,181.81,140.68,183.31,141.64,183.31L141.64,183.31z"/>
	</g>
</g>
<g>
	<g>
		<path d="M152.59,174.4c0.97,0,0.97-1.5,0-1.5C151.63,172.9,151.63,174.4,152.59,174.4L152.59,174.4z"/>
	</g>
</g>
<g>
	<g>
		<path d="M154.63,182.03c0.97,0,0.97-1.5,0-1.5C153.67,180.53,153.66,182.03,154.63,182.03L154.63,182.03z"/>
	</g>
</g>
<g>
	<g>
		<path d="M160.49,181.02c0.97,0,0.97-1.5,0-1.5C159.52,179.52,159.52,181.02,160.49,181.02L160.49,181.02z"/>
	</g>
</g>
<g>
	<g>
		<path d="M156.92,176.94c0.97,0,0.97-1.5,0-1.5C155.96,175.44,155.96,176.94,156.92,176.94L156.92,176.94z"/>
	</g>
</g>
<g>
	<g>
		<path d="M159.47,171.59c0.97,0,0.97-1.5,0-1.5C158.5,170.09,158.5,171.59,159.47,171.59L159.47,171.59z"/>
	</g>
</g>
<g>
	<g>
		<path d="M163.29,174.65c0.97,0,0.97-1.5,0-1.5C162.32,173.15,162.32,174.65,163.29,174.65L163.29,174.65z"/>
	</g>
</g>
<g>
	<g>
		<path d="M163.29,168.79c0.97,0,0.97-1.5,0-1.5C162.32,167.29,162.32,168.79,163.29,168.79L163.29,168.79z"/>
	</g>
</g>
<g>
	<g>
		<path d="M163.54,164.97c0.97,0,0.97-1.5,0-1.5C162.58,163.47,162.58,164.97,163.54,164.97L163.54,164.97z"/>
	</g>
</g>
<g>
	<g>
		<path d="M167.62,164.72c0.97,0,0.97-1.5,0-1.5C166.65,163.22,166.65,164.72,167.62,164.72L167.62,164.72z"/>
	</g>
</g>
<g>
	<g>
		<path d="M171.18,165.23c0.97,0,0.97-1.5,0-1.5C170.22,163.73,170.21,165.23,171.18,165.23L171.18,165.23z"/>
	</g>
</g>
<g>
	<g>
		<path d="M171.69,171.59c0.97,0,0.97-1.5,0-1.5C170.73,170.09,170.72,171.59,171.69,171.59L171.69,171.59z"/>
	</g>
</g>
<g>
	<g>
		<path d="M178.57,166.25c0.97,0,0.97-1.5,0-1.5C177.6,164.75,177.6,166.25,178.57,166.25L178.57,166.25z"/>
	</g>
</g>
<g>
	<g>
		<path d="M175.51,155.81c0.97,0,0.97-1.5,0-1.5C174.54,154.31,174.54,155.81,175.51,155.81L175.51,155.81z"/>
	</g>
</g>
<g>
	<g>
		<path d="M169.91,158.61c0.97,0,0.97-1.5,0-1.5C168.94,157.11,168.94,158.61,169.91,158.61L169.91,158.61z"/>
	</g>
</g>
<g>
	<g>
		<path d="M179.84,151.48c0.97,0,0.97-1.5,0-1.5C178.87,149.98,178.87,151.48,179.84,151.48L179.84,151.48z"/>
	</g>
</g>
<g>
	<g>
		<path d="M185.7,144.35c0.97,0,0.97-1.5,0-1.5C184.73,142.85,184.73,144.35,185.7,144.35L185.7,144.35z"/>
	</g>
</g>
<g>
	<g>
		<path d="M185.95,151.48c0.97,0,0.97-1.5,0-1.5C184.98,149.98,184.98,151.48,185.95,151.48L185.95,151.48z"/>
	</g>
</g>
<g>
	<g>
		<path d="M188.75,153.77c0.97,0,0.97-1.5,0-1.5C187.79,152.27,187.78,153.77,188.75,153.77L188.75,153.77z"/>
	</g>
</g>
<g>
	<g>
		<path d="M191.81,146.64c0.97,0,0.97-1.5,0-1.5C190.84,145.14,190.84,146.64,191.81,146.64L191.81,146.64z"/>
	</g>
</g>
<g>
	<g>
		<path d="M191.3,140.53c0.97,0,0.97-1.5,0-1.5C190.33,139.03,190.33,140.53,191.3,140.53L191.3,140.53z"/>
	</g>
</g>
<g>
	<g>
		<path d="M194.35,142.31c0.97,0,0.97-1.5,0-1.5C193.39,140.81,193.39,142.31,194.35,142.31L194.35,142.31z"/>
	</g>
</g>
<g>
	<g>
		<path d="M195.12,135.44c0.97,0,0.97-1.5,0-1.5C194.15,133.94,194.15,135.44,195.12,135.44L195.12,135.44z"/>
	</g>
</g>
<g>
	<g>
		<path d="M184.93,165.99c0.97,0,0.97-1.5,0-1.5C183.97,164.49,183.96,165.99,184.93,165.99L184.93,165.99z"/>
	</g>
</g>
<g>
	<g>
		<path d="M177.55,162.43c0.97,0,0.97-1.5,0-1.5C176.58,160.93,176.58,162.43,177.55,162.43L177.55,162.43z"/>
	</g>
</g>
<g>
	<g>
		<path d="M180.09,158.61c0.97,0,0.97-1.5,0-1.5C179.13,157.11,179.13,158.61,180.09,158.61L180.09,158.61z"/>
	</g>
</g>
<g>
	<g>
		<path d="M184.93,159.88c0.97,0,0.97-1.5,0-1.5C183.97,158.38,183.96,159.88,184.93,159.88L184.93,159.88z"/>
	</g>
</g>
<g>
	<g>
		<path d="M191.3,161.16c0.97,0,0.97-1.5,0-1.5C190.33,159.66,190.33,161.16,191.3,161.16L191.3,161.16z"/>
	</g>
</g>
<g>
	<g>
		<path d="M189.26,170.07c0.97,0,0.97-1.5,0-1.5C188.29,168.57,188.29,170.07,189.26,170.07L189.26,170.07z"/>
	</g>
</g>
<g>
	<g>
		<path d="M183.66,185.09c0.97,0,0.97-1.5,0-1.5C182.69,183.59,182.69,185.09,183.66,185.09L183.66,185.09z"/>
	</g>
</g>
<g>
	<g>
		<path d="M168.38,200.37c0.97,0,0.97-1.5,0-1.5C167.42,198.87,167.41,200.37,168.38,200.37L168.38,200.37z"/>
	</g>
</g>
<g>
	<g>
		<path d="M168.38,187.13c0.97,0,0.97-1.5,0-1.5C167.42,185.63,167.41,187.13,168.38,187.13L168.38,187.13z"/>
	</g>
</g>
<g>
	<g>
		<path d="M176.53,194.51c0.97,0,0.97-1.5,0-1.5C175.56,193.01,175.56,194.51,176.53,194.51L176.53,194.51z"/>
	</g>
</g>
<g>
	<g>
		<path d="M176.53,181.78c0.97,0,0.97-1.5,0-1.5C175.56,180.28,175.56,181.78,176.53,181.78L176.53,181.78z"/>
	</g>
</g>
<g>
	<g>
		<path d="M170.67,182.03c0.97,0,0.97-1.5,0-1.5C169.71,180.53,169.71,182.03,170.67,182.03L170.67,182.03z"/>
	</g>
</g>
<g>
	<g>
		<path d="M178.57,176.69c0.97,0,0.97-1.5,0-1.5C177.6,175.19,177.6,176.69,178.57,176.69L178.57,176.69z"/>
	</g>
</g>
<g>
	<g>
		<path d="M188.24,178.47c0.97,0,0.97-1.5,0-1.5C187.28,176.97,187.27,178.47,188.24,178.47L188.24,178.47z"/>
	</g>
</g>
<g>
	<g>
		<path d="M181.88,171.85c0.97,0,0.97-1.5,0-1.5C180.91,170.35,180.91,171.85,181.88,171.85L181.88,171.85z"/>
	</g>
</g>
<g>
	<g>
		<path d="M159.98,189.93c0.97,0,0.97-1.5,0-1.5C159.01,188.43,159.01,189.93,159.98,189.93L159.98,189.93z"/>
	</g>
</g>
<g>
	<g>
		<path d="M164.82,183.56c0.97,0,0.97-1.5,0-1.5C163.85,182.06,163.85,183.56,164.82,183.56L164.82,183.56z"/>
	</g>
</g>
<g>
	<g>
		<path d="M155.65,211.83c0.97,0,0.97-1.5,0-1.5C154.68,210.33,154.68,211.83,155.65,211.83L155.65,211.83z"/>
	</g>
</g>
<g>
	<g>
		<path d="M155.65,195.53c0.97,0,0.97-1.5,0-1.5C154.68,194.03,154.68,195.53,155.65,195.53L155.65,195.53z"/>
	</g>
</g>
<g>
	<g>
		<path d="M139.35,208.01c0.97,0,0.97-1.5,0-1.5C138.39,206.51,138.39,208.01,139.35,208.01L139.35,208.01z"/>
	</g>
</g>
<g>
	<g>
		<path d="M132.48,219.72c0.97,0,0.97-1.5,0-1.5C131.51,218.22,131.51,219.72,132.48,219.72L132.48,219.72z"/>
	</g>
</g>
<g>
	<g>
		<path d="M132.48,203.68c0.97,0,0.97-1.5,0-1.5C131.51,202.18,131.51,203.68,132.48,203.68L132.48,203.68z"/>
	</g>
</g>
<g>
	<g>
		<path d="M130.44,192.22c0.97,0,0.97-1.5,0-1.5C129.48,190.72,129.47,192.22,130.44,192.22L130.44,192.22z"/>
	</g>
</g>
<g>
	<g>
		<path d="M122.04,206.73c0.97,0,0.97-1.5,0-1.5C121.07,205.23,121.07,206.73,122.04,206.73L122.04,206.73z"/>
	</g>
</g>
<g>
	<g>
		<path d="M139.35,202.15c0.97,0,0.97-1.5,0-1.5C138.39,200.65,138.39,202.15,139.35,202.15L139.35,202.15z"/>
	</g>
</g>
<g>
	<g>
		<path d="M143.43,194.77c0.97,0,0.97-1.5,0-1.5C142.46,193.27,142.46,194.77,143.43,194.77L143.43,194.77z"/>
	</g>
</g>
<g>
	<g>
		<path d="M128.91,196.55c0.97,0,0.97-1.5,0-1.5C127.95,195.05,127.95,196.55,128.91,196.55L128.91,196.55z"/>
	</g>
</g>
<g>
	<g>
		<path d="M126.37,201.9c0.97,0,0.97-1.5,0-1.5C125.4,200.4,125.4,201.9,126.37,201.9L126.37,201.9z"/>
	</g>
</g>
<g>
	<g>
		<path d="M154.38,190.69c0.97,0,0.97-1.5,0-1.5C153.41,189.19,153.41,190.69,154.38,190.69L154.38,190.69z"/>
	</g>
</g>
<g>
	<g>
		<path d="M150.56,201.9c0.97,0,0.97-1.5,0-1.5C149.59,200.4,149.59,201.9,150.56,201.9L150.56,201.9z"/>
	</g>
</g>
<g>
	<g>
		<path d="M148.52,196.55c0.97,0,0.97-1.5,0-1.5C147.55,195.05,147.55,196.55,148.52,196.55L148.52,196.55z"/>
	</g>
</g>
<g>
	<g>
		<path d="M146.99,208.52c0.97,0,0.97-1.5,0-1.5C146.03,207.02,146.03,208.52,146.99,208.52L146.99,208.52z"/>
	</g>
</g>
<g>
	<g>
		<path d="M161.25,206.48c0.97,0,0.97-1.5,0-1.5C160.29,204.98,160.28,206.48,161.25,206.48L161.25,206.48z"/>
	</g>
</g>
<g>
	<g>
		<path d="M164.31,219.97c0.97,0,0.97-1.5,0-1.5C163.34,218.47,163.34,219.97,164.31,219.97L164.31,219.97z"/>
	</g>
</g>
<g>
	<g>
		<path d="M155.39,204.7c0.97,0,0.97-1.5,0-1.5C154.43,203.2,154.43,204.7,155.39,204.7L155.39,204.7z"/>
	</g>
</g>
<g>
	<g>
		<path d="M164.31,194.26c0.97,0,0.97-1.5,0-1.5C163.34,192.76,163.34,194.26,164.31,194.26L164.31,194.26z"/>
	</g>
</g>
<g>
	<g>
		<path d="M147.25,222.77c0.97,0,0.97-1.5,0-1.5C146.28,221.27,146.28,222.77,147.25,222.77L147.25,222.77z"/>
	</g>
</g>
<g>
	<g>
		<path d="M149.79,233.98c0.97,0,0.97-1.5,0-1.5C148.83,232.48,148.83,233.98,149.79,233.98L149.79,233.98z"/>
	</g>
</g>
<g>
	<g>
		<path d="M157.18,229.9c0.97,0,0.97-1.5,0-1.5C156.21,228.4,156.21,229.9,157.18,229.9L157.18,229.9z"/>
	</g>
</g>
<g>
	<g>
		<path d="M137.83,234.74c0.97,0,0.97-1.5,0-1.5C136.86,233.24,136.86,234.74,137.83,234.74L137.83,234.74z"/>
	</g>
</g>
<g>
	<g>
		<path d="M123.57,231.69c0.97,0,0.97-1.5,0-1.5C122.6,230.19,122.6,231.69,123.57,231.69L123.57,231.69z"/>
	</g>
</g>
<g>
	<g>
		<path d="M118.98,223.79c0.97,0,0.97-1.5,0-1.5C118.02,222.29,118.02,223.79,118.98,223.79L118.98,223.79z"/>
	</g>
</g>
<g>
	<g>
		<path d="M108.8,216.66c0.97,0,0.97-1.5,0-1.5C107.83,215.16,107.83,216.66,108.8,216.66L108.8,216.66z"/>
	</g>
</g>
<g>
	<g>
		<path d="M104.21,232.7c0.97,0,0.97-1.5,0-1.5C103.25,231.2,103.25,232.7,104.21,232.7L104.21,232.7z"/>
	</g>
</g>
<g>
	<g>
		<path d="M94.03,226.59c0.97,0,0.97-1.5,0-1.5C93.06,225.09,93.06,226.59,94.03,226.59L94.03,226.59z"/>
	</g>
</g>
<g>
	<g>
		<path d="M84.61,236.27c0.97,0,0.97-1.5,0-1.5C83.64,234.77,83.64,236.27,84.61,236.27L84.61,236.27z"/>
	</g>
</g>
<g>
	<g>
		<path d="M78.5,227.1c0.97,0,0.97-1.5,0-1.5C77.53,225.6,77.53,227.1,78.5,227.1L78.5,227.1z"/>
	</g>
</g>
<g>
	<g>
		<path d="M67.04,228.12c0.97,0,0.97-1.5,0-1.5C66.07,226.62,66.07,228.12,67.04,228.12L67.04,228.12z"/>
	</g>
</g>
<g>
	<g>
		<path d="M67.29,222.52c0.97,0,0.97-1.5,0-1.5C66.33,221.02,66.33,222.52,67.29,222.52L67.29,222.52z"/>
	</g>
</g>
<g>
	<g>
		<path d="M75.7,218.96c0.97,0,0.97-1.5,0-1.5C74.73,217.46,74.73,218.96,75.7,218.96L75.7,218.96z"/>
	</g>
</g>
<g>
	<g>
		<path d="M67.04,211.57c0.97,0,0.97-1.5,0-1.5C66.07,210.07,66.07,211.57,67.04,211.57L67.04,211.57z"/>
	</g>
</g>
<g>
	<g>
		<path d="M55.84,224.3c0.97,0,0.97-1.5,0-1.5C54.87,222.8,54.87,224.3,55.84,224.3L55.84,224.3z"/>
	</g>
</g>
<g>
	<g>
		<path d="M43.61,219.21c0.97,0,0.97-1.5,0-1.5C42.65,217.71,42.65,219.21,43.61,219.21L43.61,219.21z"/>
	</g>
</g>
<g>
	<g>
		<path d="M50.74,208.52c0.97,0,0.97-1.5,0-1.5C49.78,207.02,49.78,208.52,50.74,208.52L50.74,208.52z"/>
	</g>
</g>
<g>
	<g>
		<path d="M50.23,203.17c0.97,0,0.97-1.5,0-1.5C49.27,201.67,49.27,203.17,50.23,203.17L50.23,203.17z"/>
	</g>
</g>
<g>
	<g>
		<path d="M44.38,205.97c0.97,0,0.97-1.5,0-1.5C43.41,204.47,43.41,205.97,44.38,205.97L44.38,205.97z"/>
	</g>
</g>
<g>
	<g>
		<path d="M36.74,205.97c0.97,0,0.97-1.5,0-1.5C35.77,204.47,35.77,205.97,36.74,205.97L36.74,205.97z"/>
	</g>
</g>
<g>
	<g>
		<path d="M38.01,218.96c0.97,0,0.97-1.5,0-1.5C37.05,217.46,37.05,218.96,38.01,218.96L38.01,218.96z"/>
	</g>
</g>
<g>
	<g>
		<path d="M31.65,215.14c0.97,0,0.97-1.5,0-1.5C30.68,213.64,30.68,215.14,31.65,215.14L31.65,215.14z"/>
	</g>
</g>
<g>
	<g>
		<path d="M38.78,213.86c0.97,0,0.97-1.5,0-1.5C37.81,212.36,37.81,213.86,38.78,213.86L38.78,213.86z"/>
	</g>
</g>
<g>
	<g>
		<path d="M47.18,212.59c0.97,0,0.97-1.5,0-1.5C46.21,211.09,46.21,212.59,47.18,212.59L47.18,212.59z"/>
	</g>
</g>
<g>
	<g>
		<path d="M51.25,216.92c0.97,0,0.97-1.5,0-1.5C50.29,215.42,50.29,216.92,51.25,216.92L51.25,216.92z"/>
	</g>
</g>
<g>
	<g>
		<path d="M49.73,228.12c0.97,0,0.97-1.5,0-1.5C48.76,226.62,48.76,228.12,49.73,228.12L49.73,228.12z"/>
	</g>
</g>
<g>
	<g>
		<path d="M40.56,225.58c0.97,0,0.97-1.5,0-1.5C39.59,224.08,39.59,225.58,40.56,225.58L40.56,225.58z"/>
	</g>
</g>
<g>
	<g>
		<path d="M45.65,233.21c0.97,0,0.97-1.5,0-1.5C44.69,231.71,44.68,233.21,45.65,233.21L45.65,233.21z"/>
	</g>
</g>
<g>
	<g>
		<path d="M56.35,235.25c0.97,0,0.97-1.5,0-1.5C55.38,233.75,55.38,235.25,56.35,235.25L56.35,235.25z"/>
	</g>
</g>
<g>
	<g>
		<path d="M59.4,218.45c0.97,0,0.97-1.5,0-1.5C58.44,216.95,58.43,218.45,59.4,218.45L59.4,218.45z"/>
	</g>
</g>
<g>
	<g>
		<path d="M59.66,212.84c0.97,0,0.97-1.5,0-1.5C58.69,211.34,58.69,212.84,59.66,212.84L59.66,212.84z"/>
	</g>
</g>
<g>
	<g>
		<path d="M57.11,206.22c0.97,0,0.97-1.5,0-1.5C56.14,204.72,56.14,206.22,57.11,206.22L57.11,206.22z"/>
	</g>
</g>
<g>
	<g>
		<path d="M59.66,199.86c0.97,0,0.97-1.5,0-1.5C58.69,198.36,58.69,199.86,59.66,199.86L59.66,199.86z"/>
	</g>
</g>
<g>
	<g>
		<path d="M67.29,200.11c0.97,0,0.97-1.5,0-1.5C66.33,198.61,66.33,200.11,67.29,200.11L67.29,200.11z"/>
	</g>
</g>
<g>
	<g>
		<path d="M70.6,205.46c0.97,0,0.97-1.5,0-1.5C69.64,203.96,69.64,205.46,70.6,205.46L70.6,205.46z"/>
	</g>
</g>
<g>
	<g>
		<path d="M78.5,212.08c0.97,0,0.97-1.5,0-1.5C77.53,210.58,77.53,212.08,78.5,212.08L78.5,212.08z"/>
	</g>
</g>
<g>
	<g>
		<path d="M67.04,191.96c0.97,0,0.97-1.5,0-1.5C66.07,190.46,66.07,191.96,67.04,191.96L67.04,191.96z"/>
	</g>
</g>
<g>
	<g>
		<path d="M51.25,190.95c0.97,0,0.97-1.5,0-1.5C50.29,189.45,50.29,190.95,51.25,190.95L51.25,190.95z"/>
	</g>
</g>
<g>
	<g>
		<path d="M88.68,219.46c0.97,0,0.97-1.5,0-1.5C87.72,217.96,87.72,219.46,88.68,219.46L88.68,219.46z"/>
	</g>
</g>
<g>
	<g>
		<path d="M83.59,224.3c0.97,0,0.97-1.5,0-1.5C82.63,222.8,82.62,224.3,83.59,224.3L83.59,224.3z"/>
	</g>
</g>
<g>
	<g>
		<path d="M82.57,215.9c0.97,0,0.97-1.5,0-1.5C81.61,214.4,81.61,215.9,82.57,215.9L82.57,215.9z"/>
	</g>
</g>
<g>
	<g>
		<path d="M98.1,215.14c0.97,0,0.97-1.5,0-1.5C97.14,213.64,97.14,215.14,98.1,215.14L98.1,215.14z"/>
	</g>
</g>
<g>
	<g>
		<path d="M99.89,225.58c0.97,0,0.97-1.5,0-1.5C98.92,224.08,98.92,225.58,99.89,225.58L99.89,225.58z"/>
	</g>
</g>
<g>
	<g>
		<path d="M111.6,232.96c0.97,0,0.97-1.5,0-1.5C110.63,231.46,110.63,232.96,111.6,232.96L111.6,232.96z"/>
	</g>
</g>
<g>
	<g>
		<path d="M113.89,243.91c0.97,0,0.97-1.5,0-1.5C112.93,242.41,112.92,243.91,113.89,243.91L113.89,243.91z"/>
	</g>
</g>
<g>
	<g>
		<path d="M102.18,248.24c0.97,0,0.97-1.5,0-1.5C101.21,246.74,101.21,248.24,102.18,248.24L102.18,248.24z"/>
	</g>
</g>
<g>
	<g>
		<path d="M98.36,243.14c0.97,0,0.97-1.5,0-1.5C97.39,241.64,97.39,243.14,98.36,243.14L98.36,243.14z"/>
	</g>
</g>
<g>
	<g>
		<path d="M96.58,236.52c0.97,0,0.97-1.5,0-1.5C95.61,235.02,95.61,236.52,96.58,236.52L96.58,236.52z"/>
	</g>
</g>
<g>
	<g>
		<path d="M90.21,247.22c0.97,0,0.97-1.5,0-1.5C89.25,245.72,89.24,247.22,90.21,247.22L90.21,247.22z"/>
	</g>
</g>
<g>
	<g>
		<path d="M80.53,243.65c0.97,0,0.97-1.5,0-1.5C79.57,242.15,79.57,243.65,80.53,243.65L80.53,243.65z"/>
	</g>
</g>
<g>
	<g>
		<path d="M76.72,236.01c0.97,0,0.97-1.5,0-1.5C75.75,234.51,75.75,236.01,76.72,236.01L76.72,236.01z"/>
	</g>
</g>
<g>
	<g>
		<path d="M68.31,230.41c0.97,0,0.97-1.5,0-1.5C67.35,228.91,67.35,230.41,68.31,230.41L68.31,230.41z"/>
	</g>
</g>
<g>
	<g>
		<path d="M68.06,239.58c0.97,0,0.97-1.5,0-1.5C67.09,238.08,67.09,239.58,68.06,239.58L68.06,239.58z"/>
	</g>
</g>
<g>
	<g>
		<path d="M76.72,246.2c0.97,0,0.97-1.5,0-1.5C75.75,244.7,75.75,246.2,76.72,246.2L76.72,246.2z"/>
	</g>
</g>
<g>
	<g>
		<path d="M63.22,240.09c0.97,0,0.97-1.5,0-1.5C62.26,238.59,62.25,240.09,63.22,240.09L63.22,240.09z"/>
	</g>
</g>
<g>
	<g>
		<path d="M62.2,227.61c0.97,0,0.97-1.5,0-1.5C61.24,226.11,61.24,227.61,62.2,227.61L62.2,227.61z"/>
	</g>
</g>
<g>
	<g>
		<path d="M105.49,227.36c0.97,0,0.97-1.5,0-1.5C104.52,225.86,104.52,227.36,105.49,227.36L105.49,227.36z"/>
	</g>
</g>
<g>
	<g>
		<path d="M119.49,215.39c0.97,0,0.97-1.5,0-1.5C118.53,213.89,118.53,215.39,119.49,215.39L119.49,215.39z"/>
	</g>
</g>
<g>
	<g>
		<path d="M130.44,211.32c0.97,0,0.97-1.5,0-1.5C129.48,209.82,129.47,211.32,130.44,211.32L130.44,211.32z"/>
	</g>
</g>
<g>
	<g>
		<path d="M125.86,223.03c0.97,0,0.97-1.5,0-1.5C124.89,221.53,124.89,223.03,125.86,223.03L125.86,223.03z"/>
	</g>
</g>
<g>
	<g>
		<path d="M129.42,227.61c0.97,0,0.97-1.5,0-1.5C128.46,226.11,128.46,227.61,129.42,227.61L129.42,227.61z"/>
	</g>
</g>
<g>
	<g>
		<path d="M130.19,236.27c0.97,0,0.97-1.5,0-1.5C129.22,234.77,129.22,236.27,130.19,236.27L130.19,236.27z"/>
	</g>
</g>
<g>
	<g>
		<path d="M129.68,246.2c0.97,0,0.97-1.5,0-1.5C128.71,244.7,128.71,246.2,129.68,246.2L129.68,246.2z"/>
	</g>
</g>
<g>
	<g>
		<path d="M121.53,246.96c0.97,0,0.97-1.5,0-1.5C120.56,245.46,120.56,246.96,121.53,246.96L121.53,246.96z"/>
	</g>
</g>
<g>
	<g>
		<path d="M122.55,241.62c0.97,0,0.97-1.5,0-1.5C121.58,240.12,121.58,241.62,122.55,241.62L122.55,241.62z"/>
	</g>
</g>
<g>
	<g>
		<path d="M118.22,238.05c0.97,0,0.97-1.5,0-1.5C117.25,236.55,117.25,238.05,118.22,238.05L118.22,238.05z"/>
	</g>
</g>
<g>
	<g>
		<path d="M106,239.07c0.97,0,0.97-1.5,0-1.5C105.03,237.57,105.03,239.07,106,239.07L106,239.07z"/>
	</g>
</g>
<g>
	<g>
		<path d="M136.81,226.85c0.97,0,0.97-1.5,0-1.5C135.84,225.35,135.84,226.85,136.81,226.85L136.81,226.85z"/>
	</g>
</g>
<g>
	<g>
		<path d="M142.92,214.88c0.97,0,0.97-1.5,0-1.5C141.95,213.38,141.95,214.88,142.92,214.88L142.92,214.88z"/>
	</g>
</g>
<g>
	<g>
		<path d="M123.82,217.17c0.97,0,0.97-1.5,0-1.5C122.86,215.67,122.85,217.17,123.82,217.17L123.82,217.17z"/>
	</g>
</g>
<g>
	<g>
		<path d="M169.4,215.64c0.97,0,0.97-1.5,0-1.5C168.43,214.14,168.43,215.64,169.4,215.64L169.4,215.64z"/>
	</g>
</g>
<g>
	<g>
		<path d="M161.51,212.33c0.97,0,0.97-1.5,0-1.5C160.54,210.83,160.54,212.33,161.51,212.33L161.51,212.33z"/>
	</g>
</g>
<g>
	<g>
		<path d="M168.64,206.73c0.97,0,0.97-1.5,0-1.5C167.67,205.23,167.67,206.73,168.64,206.73L168.64,206.73z"/>
	</g>
</g>
<g>
	<g>
		<path d="M172.96,204.95c0.97,0,0.97-1.5,0-1.5C172,203.45,172,204.95,172.96,204.95L172.96,204.95z"/>
	</g>
</g>
<g>
	<g>
		<path d="M154.38,220.74c0.97,0,0.97-1.5,0-1.5C153.41,219.24,153.41,220.74,154.38,220.74L154.38,220.74z"/>
	</g>
</g>
<g>
	<g>
		<path d="M143.17,229.39c0.97,0,0.97-1.5,0-1.5C142.21,227.89,142.21,229.39,143.17,229.39L143.17,229.39z"/>
	</g>
</g>
<g>
	<g>
		<path d="M142.92,239.33c0.97,0,0.97-1.5,0-1.5C141.95,237.83,141.95,239.33,142.92,239.33L142.92,239.33z"/>
	</g>
</g>
<g>
	<g>
		<path d="M151.07,239.83c0.97,0,0.97-1.5,0-1.5C150.1,238.33,150.1,239.83,151.07,239.83L151.07,239.83z"/>
	</g>
</g>
<g>
	<g>
		<path d="M134.77,244.93c0.97,0,0.97-1.5,0-1.5C133.8,243.43,133.8,244.93,134.77,244.93L134.77,244.93z"/>
	</g>
</g>
<g>
	<g>
		<path d="M139.1,220.74c0.97,0,0.97-1.5,0-1.5C138.13,219.24,138.13,220.74,139.1,220.74L139.1,220.74z"/>
	</g>
</g>
<g>
	<g>
		<path d="M111.34,223.54c0.97,0,0.97-1.5,0-1.5C110.38,222.04,110.38,223.54,111.34,223.54L111.34,223.54z"/>
	</g>
</g>
<g>
	<g>
		<path d="M112.36,209.53c0.97,0,0.97-1.5,0-1.5C111.4,208.03,111.4,209.53,112.36,209.53L112.36,209.53z"/>
	</g>
</g>
<g>
	<g>
		<path d="M41.91,186.63c0.97,0,0.97-1.5,0-1.5C40.95,185.13,40.95,186.63,41.91,186.63L41.91,186.63z"/>
	</g>
</g>
<g>
	<g>
		<path d="M170.26,192.3c0.97,0,0.97-1.5,0-1.5C169.3,190.8,169.3,192.3,170.26,192.3L170.26,192.3z"/>
	</g>
</g>
<g>
	<g>
		<path d="M158.97,200.97c0.97,0,0.97-1.5,0-1.5C158,199.47,158,200.97,158.97,200.97L158.97,200.97z"/>
	</g>
</g>
<g>
	<g>
		<path d="M10.94,160.66c0.97,0,0.97-1.5,0-1.5C9.98,159.16,9.98,160.66,10.94,160.66L10.94,160.66z"/>
	</g>
</g>
<g>
	<g>
		<path d="M10.57,165.94c0.97,0,0.97-1.5,0-1.5C9.6,164.44,9.6,165.94,10.57,165.94L10.57,165.94z"/>
	</g>
</g>
</svg>
