<?xml version="1.0" encoding="utf-8"?>
<!-- Generator: Adobe Illustrator 28.0.0, SVG Export Plug-In . SVG Version: 6.00 Build 0)  -->
<svg version="1.1" id="Layer_1" xmlns="http://www.w3.org/2000/svg" xmlns:xlink="http://www.w3.org/1999/xlink" x="0px" y="0px"
	 viewBox="0 0 335.52 792" style="enable-background:new 0 0 335.52 792;" xml:space="preserve">
<style type="text/css">
	.st0{fill:none;stroke:#000000;stroke-width:3;stroke-miterlimit:10;}
	.st1{stroke:#000000;stroke-miterlimit:10;}
</style>
<path class="st0" d="M118.79,713.78c7.5-17.79,23.22-30.73,34.93-46.17c5.33-7.02,9.86-14.63,13.49-22.64"/>
<path class="st0" d="M74.18,726.97c-5.51,3.41-10.89,7.73-13.19,13.79c-1.63,4.28-1.54,9-1.44,13.58c0.11,4.9,0.28,10.01,2.61,14.33
	c1.81,3.34,4.78,5.92,7.97,7.98c12.58,8.14,28.4,9,43.39,9.06c5.74,0.02,11.59-0.06,17.02-1.92c13.38-4.59,21.2-19.56,20.95-33.7
	c-0.16-9.07-3.18-18.18-9.01-25.13C125.36,704.55,93.38,715.08,74.18,726.97z"/>
<path class="st0" d="M170.16,397.67c22.91-2.55,48.76,1.76,70.3-11.17c30.16-25.85,47.39-60.32,56.01-99.1
	c8.62-64.63,0-137.87-60.32-176.65c-8.62-4.31-21.54-8.62-30.16-12.93c-38.78-12.93-68.94,21.54-99.1,43.09
	c-34.47,30.16-51.7,68.94-51.7,112.02c-4.31,64.63,38.78,137.87,112.02,146.49c3.59-0.72,7.18-1.44,10.77-2.15"/>
<path class="st0" d="M133.07,273.11c-1.85-5.51-0.1-11.48,0.66-17.24c0.73-5.51,0.53-11.11,0.33-16.66
	c-0.58-16.01-1.16-32.01-1.74-48.02"/>
<path class="st0" d="M216.53,714.24c-7.51-17.79-23.23-30.72-34.95-46.16c-5.33-7.02-9.87-14.63-13.5-22.63l-0.87-246.03"/>
<path class="st0" d="M261.15,727.42c5.51,3.41,10.89,7.73,13.19,13.78c1.63,4.28,1.55,9,1.44,13.58c-0.11,4.9-0.27,10.01-2.6,14.33
	c-1.8,3.34-4.77,5.92-7.96,7.99c-12.58,8.15-28.4,9.01-43.39,9.08c-5.74,0.02-11.59-0.05-17.02-1.91
	c-13.38-4.58-21.21-19.55-20.97-33.69c0.16-9.07,3.17-18.18,9-25.13C209.96,705.01,241.94,715.53,261.15,727.42z"/>
<g>
	<g>
		<path d="M135.97,312.72c7.74,6.6,16.8,11.88,26.88,13.85c9.32,1.82,18.9,0.7,27.65-2.96c5.48-2.3,10.48-5.46,15.12-9.15
			c1.51-1.2-0.62-3.31-2.12-2.12c-7.4,5.89-16.07,10.31-25.5,11.7c-8.8,1.3-17.84-0.36-25.84-4.17c-5.09-2.42-9.78-5.62-14.07-9.27
			C136.63,309.35,134.5,311.46,135.97,312.72L135.97,312.72z"/>
	</g>
</g>
<path class="st1" d="M259.18,137.54c-19.01,4.62-43.49,8.8-72.13,9.41c-28.48,0.6-53-2.5-72.13-6.27l-3.14-53.31H89.78H69.47
	l89.36-81.53l125.44,65.85l-28.22,9.41L259.18,137.54z"/>
<g>
	<g>
		<path d="M90.52,81.31c-2.67-0.67-4.47,1.6-5.25,3.88c-1.02,2.99-1.18,6.41-1.44,9.54c-0.51,6.16-1.14,12.23-2.52,18.27
			c-2.63,11.46-7.21,22.43-13.49,32.37c-3.57,5.64-7.68,10.91-12.28,15.75c0.84,0.49,1.67,0.97,2.51,1.46
			c0.51-1.4,1.02-2.8,1.52-4.2c0.66-1.82-2.24-2.6-2.89-0.8c-0.51,1.4-1.02,2.8-1.52,4.2c-0.52,1.43,1.51,2.5,2.51,1.46
			c15.64-16.45,25.71-37.85,28.44-60.38c0.25-2.05,0.88-19.34,3.62-18.66C91.6,84.67,92.4,81.78,90.52,81.31L90.52,81.31z"/>
	</g>
</g>
<polyline class="st0" points="328.84,393.4 169.68,473.14 13.71,391.32 "/>
<path class="st0" d="M204.58,271.82c-1.85-5.51-0.1-11.48,0.66-17.24c0.73-5.51,0.53-11.11,0.33-16.66
	c-0.58-16.01-1.16-32.01-1.74-48.02"/>
</svg>
