<?xml version="1.0" encoding="utf-8"?>
<!-- Generator: Adobe Illustrator 28.0.0, SVG Export Plug-In . SVG Version: 6.00 Build 0)  -->
<svg version="1.1" id="Layer_1" xmlns="http://www.w3.org/2000/svg" xmlns:xlink="http://www.w3.org/1999/xlink" x="0px" y="0px"
	 viewBox="0 0 315.87 792" style="enable-background:new 0 0 315.87 792;" xml:space="preserve">
<style type="text/css">
	.st0{fill:none;stroke:#000000;stroke-width:3;stroke-miterlimit:10;}
</style>
<g>
	<path class="st0" d="M102.19,705.24c8.76-20.17,27.1-34.84,40.78-52.33c6.22-7.96,11.51-16.58,15.75-25.66"/>
	<path class="st0" d="M50.11,720.19c-6.43,3.87-12.71,8.76-15.39,15.63c-1.9,4.86-1.8,10.2-1.68,15.39
		c0.13,5.55,0.32,11.35,3.04,16.24c2.11,3.79,5.58,6.71,9.3,9.05c14.69,9.23,33.16,10.2,50.66,10.27c6.7,0.03,13.53-0.06,19.86-2.17
		c15.62-5.2,24.75-22.17,24.46-38.2c-0.19-10.28-3.71-20.61-10.52-28.49C109.85,694.77,72.52,706.71,50.11,720.19z"/>
	<path class="st0" d="M171.3,346.47c-4.19,0.81-8.38,1.63-12.57,2.44c-85.51-9.77-135.81-92.79-130.78-166.05
		c0-48.84,20.12-92.79,60.36-126.98C123.51,31.47,158.72-7.6,203.99,7.05c10.06,4.88,25.15,9.77,35.21,14.65
		c70.42,43.95,80.48,126.98,70.42,200.23c-10.06,43.95-30.18,83.02-65.39,112.33c-25.15,14.65-55.33,9.77-82.08,12.66"/>
	<path class="st0" d="M128.76,245.74c-1.62-5.09,0.15-10.43,0.98-15.63c0.8-4.98,0.73-10.06,0.65-15.12
		c-0.21-14.57-0.42-29.13-0.63-43.7"/>
	<g>
		<g>
			<path d="M119.93,290.97c18.59,6.82,38.93,8.5,58.41,5.05c5.57-0.98,11.05-2.4,16.4-4.23c1.82-0.62,1.04-3.52-0.8-2.89
				c-18.36,6.28-38.34,7.57-57.35,3.69c-5.39-1.1-10.7-2.61-15.86-4.51C118.91,287.41,118.13,290.31,119.93,290.97L119.93,290.97z"
				/>
		</g>
	</g>
	<path class="st0" d="M194.67,247.59c-1.71-5.5,0.19-11.12,1.1-16.63c0.87-5.27,0.81-10.7,0.75-16.1
		c-0.17-15.54-0.35-31.09-0.52-46.63"/>
	<polygon class="st0" points="28.15,362.7 143.96,423.58 143.96,586.39 21.85,512.76 	"/>
	<g>
		<g>
			<path d="M142.14,586.25c8.95,8.18,23.42,7.54,31.54-1.52c1.29-1.43-0.83-3.56-2.12-2.12c-7,7.8-19.49,8.65-27.29,1.52
				C142.84,582.83,140.71,584.94,142.14,586.25L142.14,586.25z"/>
		</g>
	</g>
	<g>
		<g>
			<path d="M146.03,425.71c6.99-4.73,17.15-4.35,24.1,0.27c1.61,1.07,3.12-1.52,1.51-2.59c-7.77-5.17-19.31-5.56-27.13-0.27
				C142.92,424.2,144.42,426.8,146.03,425.71L146.03,425.71z"/>
		</g>
	</g>
	<line class="st0" x1="43.93" y1="353.51" x2="151.17" y2="420.88"/>
	<line class="st0" x1="71.56" y1="347.97" x2="149.77" y2="420.29"/>
	<line class="st0" x1="271.68" y1="355.93" x2="164.44" y2="423.31"/>
	<line class="st0" x1="244.04" y1="350.4" x2="165.84" y2="422.72"/>
	<polygon class="st0" points="288.16,362.3 172.35,423.19 172.35,585.99 294.47,512.36 	"/>
	<path class="st0" d="M214.21,706.62c-8.76-20.17-27.1-34.84-40.78-52.33c-6.22-7.96-11.51-16.58-15.75-25.66l0.52-38.07"/>
	<path class="st0" d="M266.29,721.57c6.43,3.87,12.71,8.76,15.39,15.63c1.9,4.86,1.8,10.2,1.68,15.39
		c-0.13,5.55-0.32,11.35-3.04,16.24c-2.11,3.79-5.58,6.71-9.3,9.05c-14.69,9.23-33.16,10.2-50.66,10.27
		c-6.7,0.03-13.53-0.06-19.86-2.17c-15.62-5.2-24.75-22.17-24.46-38.2c0.19-10.28,3.71-20.61,10.52-28.49
		C206.54,696.15,243.88,708.09,266.29,721.57z"/>
	<path class="st0" d="M156.58,417.82"/>
	<line class="st0" x1="156.58" y1="419.35" x2="155.72" y2="348.91"/>
	<polyline class="st0" points="25.73,420.29 7.97,424.69 58.8,448.45 	"/>
	<polyline class="st0" points="292.07,430.22 309.84,434.61 259.01,458.37 	"/>
</g>
</svg>
