<?xml version="1.0" encoding="utf-8"?>
<!-- Generator: Adobe Illustrator 28.0.0, SVG Export Plug-In . SVG Version: 6.00 Build 0)  -->
<svg version="1.1" id="Layer_1" xmlns="http://www.w3.org/2000/svg" xmlns:xlink="http://www.w3.org/1999/xlink" x="0px" y="0px"
	 viewBox="0 0 612 792" style="enable-background:new 0 0 612 792;" xml:space="preserve">
<style type="text/css">
	.st0{fill:none;stroke:#000000;stroke-width:3;stroke-miterlimit:10;}
	.st1{fill:none;stroke:#000000;stroke-width:2;stroke-miterlimit:10;}
</style>
<g>
	<g>
		<path d="M506.06,41.44c0.01-0.02,0.01-0.04,0.02-0.06c0.38-1.07-0.8-2.18-1.85-1.85c-2.21,0.72-1.05,3.84-0.79,5.5
			c0.36,2.29,0.78,4.58,1.26,6.85c0.99,4.62,2.27,9.18,3.94,13.6c0.83,2.2,1.79,4.35,2.77,6.49c1.01,2.2,1.7,4.49,2.56,6.74
			c1.53,3.98,3.82,7.54,6.45,10.88c3.3,4.2,7.02,8.09,10.81,11.84c1.37,1.36,3.49-0.76,2.12-2.12
			c-5.86-5.81-12.13-12.06-15.71-19.61c-0.92-1.94-1.49-4-2.25-6.01c-0.74-1.95-1.67-3.81-2.51-5.72
			c-1.79-4.07-3.17-8.31-4.28-12.61c-1.24-4.8-2.11-9.67-2.78-14.58c-0.05,0.39-0.1,0.77-0.15,1.16c0.03-0.06,0.06-0.11,0.08-0.17
			c-0.3,0.23-0.6,0.46-0.9,0.69c0.05-0.02,0.1-0.03,0.15-0.05c-0.62-0.62-1.23-1.23-1.85-1.85c-0.01,0.02-0.01,0.04-0.02,0.06
			C502.52,42.46,505.42,43.25,506.06,41.44L506.06,41.44z"/>
	</g>
</g>
<line class="st0" x1="538.21" y1="19.13" x2="63.62" y2="250.22"/>
<line class="st0" x1="95.41" y1="317.84" x2="570" y2="86.75"/>
<g>
	<g>
		<path d="M61.78,251.06c-2.3,3.04-1.22,7.65,0.44,10.71c2,3.69,5.48,6.26,9.03,8.34c-0.1-0.79-0.2-1.57-0.3-2.36
			c-2.44,2.41-3.21,6.35-3.62,9.63c-0.47,3.76,1.57,7.8,3.16,11.11c2.75,5.73,8.25,13.22,15.51,12.55
			c-0.35-0.85-0.71-1.71-1.06-2.56c-2.83,2.72-1.38,7.56,0.2,10.55c1.99,3.78,5.15,7.12,9,9.02c1.73,0.85,3.25-1.73,1.51-2.59
			c-3.06-1.51-5.54-3.96-7.31-6.86c-1.11-1.83-3.27-6.07-1.28-7.99c0.88-0.85,0.26-2.68-1.06-2.56c-6.01,0.55-10.43-6-12.73-10.67
			c-0.72-1.47-1.35-2.98-1.92-4.51c-0.57-1.55-1.22-3.14-1.09-4.81c0.12-1.5,0.52-3.05,0.92-4.49c0.38-1.36,0.87-2.68,1.89-3.68
			c0.69-0.68,0.53-1.87-0.3-2.36c-2.91-1.7-5.76-3.69-7.57-6.6c-1.42-2.29-2.63-5.96-0.82-8.35
			C65.54,251.03,62.93,249.54,61.78,251.06L61.78,251.06z"/>
	</g>
</g>
<g>
	<g>
		<path d="M539.15,22.65c0.02-0.02,0.03-0.04,0.05-0.06c0.74-0.89,0.36-2.69-1.06-2.56c-2.71,0.25-1.6,3.66-1.37,5.44
			c0.32,2.44,0.69,4.88,1.15,7.3c0.94,5.02,2.22,9.99,3.96,14.79c0.9,2.47,1.94,4.88,3.04,7.27c1.09,2.39,1.83,4.85,2.74,7.31
			c1.63,4.44,4.23,8.37,7.23,11.99c3.64,4.41,7.74,8.47,11.92,12.37c1.41,1.32,3.54-0.8,2.12-2.12c-3.4-3.17-6.7-6.46-9.8-9.92
			c-2.92-3.26-5.63-6.75-7.54-10.71c-0.99-2.04-1.59-4.21-2.35-6.34c-0.79-2.23-1.86-4.33-2.8-6.49c-1.9-4.34-3.33-8.9-4.45-13.5
			c-0.6-2.49-1.11-5-1.54-7.52c-0.22-1.3-0.42-2.6-0.6-3.91c-0.09-0.64-0.17-1.27-0.25-1.91c-0.05-0.43-0.4-1.69-0.26-2.07
			c-0.23,0.3-0.46,0.6-0.69,0.9c-0.17,0.04-0.34,0.08-0.51,0.11c-0.35-0.85-0.71-1.71-1.06-2.56c-0.02,0.02-0.03,0.04-0.05,0.06
			C535.8,22,537.91,24.13,539.15,22.65L539.15,22.65z"/>
	</g>
</g>
<polyline class="st0" points="568.59,83.75 599.11,69.4 570.44,7.03 540.07,21.72 "/>
<line class="st0" x1="72.01" y1="268.81" x2="511.93" y2="69.2"/>
<line class="st0" x1="84.32" y1="299.92" x2="519.15" y2="84.79"/>
<polyline class="st0" points="62.44,252.11 3.75,318.32 95.38,316.52 "/>
<path class="st1" d="M34.38,316.9c-2.6-2.02-5.23-4.07-7.28-6.65s-3.51-5.78-3.37-9.07c0.08-1.9,0.67-3.8,0.29-5.66"/>
<g>
	<path class="st0" d="M404.26,457.12c-5.39,68.48-9.08,142.34-1.69,212.52c4.31,9.47,11.52,22.51,23.38,35.68
		c10.78,11.97,21.78,20.04,30.17,25.26c-1.23,2.46-2.46,4.92-3.69,7.39c-0.98,2.49-5.5,14.69,0.56,26.53
		c3.56,6.95,8.94,10.6,12.61,12.61c14.68,8.08,33.17,13.5,46.31-0.17c10.83-11.27,9.7-28.74-1.77-39.16
		c-12.33-11.19-32.53-15.98-54.01-7.65"/>
	<path class="st0" d="M402.56,669.64c-3.11,6.86-7,13.38-11.57,19.4c-10.04,13.23-23.51,24.32-29.95,39.57"/>
	<path class="st0" d="M322.8,739.91c-4.72,2.92-9.33,6.63-11.31,11.82c-1.4,3.67-1.33,7.71-1.24,11.64c0.1,4.2,0.24,8.58,2.23,12.28
		c1.55,2.87,4.09,5.08,6.83,6.85c10.79,6.98,24.35,7.72,37.19,7.77c4.92,0.02,9.94-0.05,14.59-1.64
		c11.47-3.93,18.18-16.76,17.97-28.89c-0.13-7.78-2.72-15.58-7.72-21.54C366.68,720.7,339.26,729.72,322.8,739.91z"/>
	<path class="st0" d="M405.08,457.6c19.64-2.19,41.8,1.5,60.27-9.58c25.85-22.16,40.63-51.71,48.01-84.95
		c7.39-55.4,0-118.19-51.71-151.43c-7.39-3.69-18.47-7.39-25.85-11.08c-33.24-11.08-59.09,18.47-84.95,36.93
		c-29.55,25.85-44.32,59.09-44.32,96.03c-3.69,55.4,33.24,118.19,96.03,125.58c3.08-0.62,6.16-1.23,9.23-1.85"/>
	<path class="st0" d="M403.43,482.02c7.37,5.68,17.41,6.06,26.72,6.17c3.16,0.04,6.44,0.05,9.33-1.24c2.64-1.19,4.71-3.36,6.55-5.59
		c2.31-2.79,4.43-5.82,5.59-9.26c2.02-5.98,0.8-12.95-3.14-17.88"/>
	<path class="st0" d="M349.73,294.4c2.52-4.3,7.36-6.53,11.52-9.28c3.97-2.64,7.47-5.91,10.95-9.17
		c10.02-9.39,20.04-18.77,30.06-28.16"/>
	<path class="st0" d="M345.66,266.52c5.36-3.31,10.78-6.65,15.31-11.02c2.29-2.22,4.34-4.67,6.55-6.98
		c3.51-3.67,7.42-6.94,11.38-10.12c4.15-3.34,8.38-6.61,12.66-9.78"/>
	<path class="st0" d="M319.87,309.13c0.06,5.88,2.9,11.49,6.96,15.75c4.05,4.25,9.25,7.27,14.63,9.63
		c11.04,4.86,23.18,7.21,35.24,6.83"/>
	<path class="st0" d="M345.33,245.29c-1.62-3.37-3.43-6.64-5.42-9.8c-0.71-1.12-1.45-2.25-2.46-3.11c-1.19-1.02-2.67-1.61-4.07-2.3
		c-8.68-4.25-15-12.49-23.88-16.3c-0.21-0.09-0.48-0.17-0.65-0.01s0.13,0.51,0.24,0.31"/>
	<path class="st0" d="M399.7,474.14c-10.72-2.51-21.03,4.56-30.31,10.49c-11.83,7.56-24.45,13.78-37.05,19.98
		c-13.52,6.66-27.03,13.31-40.55,19.97c0.56-1.03,1.12-2.06,1.68-3.09"/>
</g>
</svg>
