<?xml version="1.0" encoding="utf-8"?>
<!-- Generator: Adobe Illustrator 28.0.0, SVG Export Plug-In . SVG Version: 6.00 Build 0)  -->
<svg version="1.1" id="Layer_1" xmlns="http://www.w3.org/2000/svg" xmlns:xlink="http://www.w3.org/1999/xlink" x="0px" y="0px"
	 viewBox="0 0 325.5 792" style="enable-background:new 0 0 325.5 792;" xml:space="preserve">
<style type="text/css">
	.st0{fill:none;stroke:#000000;stroke-width:3;stroke-miterlimit:10;}
	.st1{stroke:#000000;stroke-width:2;stroke-miterlimit:10;}
</style>
<path class="st0" d="M113.41,707.26c8.55-20.27,26.45-35.02,39.79-52.6c6.07-8,11.24-16.67,15.37-25.79"/>
<path class="st0" d="M62.58,722.29c-6.27,3.89-12.4,8.81-15.02,15.71c-1.85,4.88-1.76,10.25-1.64,15.47
	c0.13,5.58,0.32,11.41,2.97,16.32c2.06,3.81,5.44,6.74,9.08,9.1c14.34,9.28,32.36,10.26,49.44,10.32c6.54,0.03,13.2-0.06,19.39-2.18
	c15.25-5.23,24.16-22.28,23.87-38.4c-0.18-10.34-3.62-20.71-10.27-28.63C120.89,696.74,84.45,708.74,62.58,722.29z"/>
<path class="st0" d="M171.93,347.1c26.1-2.91,55.56,2,80.1-12.73c34.36-29.45,54-68.73,63.82-112.91
	c9.82-73.63,0-157.09-68.73-201.27c-9.82-4.91-24.54-9.82-34.36-14.73c-44.18-14.71-78.54,24.56-112.9,49.1
	C60.59,88.93,40.95,133.11,40.95,182.2c-4.91,73.63,44.18,157.09,127.63,166.9c4.09-0.82,8.18-1.64,12.27-2.45"/>
<path class="st0" d="M188.87,219.11c0.58-6.6,5.13-12.03,8.55-17.7c3.27-5.43,5.61-11.36,7.94-17.25
	c6.69-16.98,13.38-33.95,20.07-50.93"/>
<path class="st0" d="M111.75,201.78c0.47-6.6,4.91-12.12,8.23-17.85c3.17-5.49,5.41-11.46,7.62-17.39
	c6.38-17.1,12.77-34.19,19.15-51.29"/>
<polyline class="st0" points="76.4,265.74 7.82,411 169.23,396.52 260.29,473.24 193.27,603.54 "/>
<path class="st0" d="M224.77,707.79c-8.56-20.27-26.47-35-39.82-52.59c-6.07-8-11.24-16.67-15.38-25.78l-0.99-280.32"/>
<path class="st0" d="M275.6,722.8c6.27,3.88,12.41,8.8,15.03,15.7c1.86,4.88,1.76,10.25,1.65,15.47
	c-0.13,5.58-0.31,11.41-2.96,16.32c-2.06,3.81-5.44,6.75-9.07,9.1c-14.33,9.28-32.36,10.27-49.43,10.34
	c-6.54,0.03-13.2-0.06-19.39-2.18c-15.25-5.22-24.17-22.27-23.89-38.39c0.18-10.34,3.61-20.71,10.26-28.64
	C217.28,697.27,253.72,709.26,275.6,722.8z"/>
<g>
	<g>
		<path class="st1" d="M109.46,255.9c17.92,6.77,37.62,8.51,56.47,5.07c5.43-0.99,10.76-2.42,15.96-4.25
			c0.45-0.16,0.26-0.88-0.2-0.72c-18.09,6.37-37.84,7.64-56.61,3.7c-5.25-1.11-10.41-2.62-15.43-4.52
			C109.21,255.01,109.02,255.73,109.46,255.9L109.46,255.9z"/>
	</g>
</g>
</svg>
